<?xml version="1.0" standalone="no"?>
<!DOCTYPE svg PUBLIC "-//W3C//DTD SVG 1.1//EN" "http://www.w3.org/Graphics/SVG/1.1/DTD/svg11.dtd" >
<svg xmlns="http://www.w3.org/2000/svg">
<metadata></metadata>
<defs>
<font id="foundation_sans_lightitalic" horiz-adv-x="1024" >
<font-face units-per-em="2048" ascent="1690" descent="-358" />
<missing-glyph horiz-adv-x="614" />
<glyph unicode="&#xfb01;" horiz-adv-x="927" d="M70 0l186 891h-182l20 98h185l32 146q22 94 41.5 137t53.5 69q53 41 151 41q35 0 90 -6l-22 -106q-36 4 -47 4q-66 0 -96.5 -34.5t-53.5 -135.5l-27 -115h193l-21 -98h-194l-186 -891h-123zM547 0l211 989h123l-211 -989h-123zM797 1178l39 188h122l-38 -188h-123z" />
<glyph unicode="&#xfb02;" horiz-adv-x="927" d="M70 0l186 891h-182l20 98h185l32 146q22 94 41.5 137t53.5 69q53 41 151 41q35 0 90 -6l-22 -106q-36 4 -47 4q-66 0 -96.5 -34.5t-53.5 -135.5l-27 -115h193l-21 -98h-194l-186 -891h-123zM547 0l289 1366h122l-288 -1366h-123z" />
<glyph horiz-adv-x="2048" />
<glyph horiz-adv-x="2048" />
<glyph unicode="&#xd;" horiz-adv-x="2048" />
<glyph unicode=" "  horiz-adv-x="614" />
<glyph unicode="&#x09;" horiz-adv-x="614" />
<glyph unicode="&#xa0;" horiz-adv-x="614" />
<glyph unicode="!" horiz-adv-x="489" d="M55 0l39 184h162l-39 -184h-162zM150 330l106 590l94 446h150l-101 -475l-149 -561h-100z" />
<glyph unicode="&#x22;" horiz-adv-x="636" d="M193 819l96 547h141l-135 -547h-102zM473 819l98 547h140l-136 -547h-102z" />
<glyph unicode="#" horiz-adv-x="1226" d="M117 481l24 72h262l82 235h-260l27 74h260l135 383h76l-135 -383h246l135 383h75l-135 -383h265l-25 -74h-266l-84 -235h266l-25 -72h-266l-147 -415h-74l145 415h-245l-148 -415h-74l146 415h-260zM477 553h248l84 235h-248z" />
<glyph unicode="$" horiz-adv-x="1161" d="M53 399v43h140q-2 -149 53 -229t184 -115l119 561l-51 21q-157 63 -224 140.5t-67 193.5q0 169 132.5 278t336.5 109h31l43 198h92l-45 -208q175 -28 264.5 -136t87.5 -290h-137q3 141 -52.5 212t-187.5 99l-108 -514l45 -19q112 -46 169 -79t97 -76q84 -94 84 -223 q0 -180 -139 -290t-365 -110q-23 0 -59 4l-43 -198h-93l46 211q-169 38 -261 146.5t-92 270.5zM344 1030q0 -75 53 -127.5t181 -105.5l104 487q-151 -3 -244.5 -73.5t-93.5 -180.5zM520 84q18 -2 45 -2q157 0 257 74.5t100 191.5q0 43 -17 85.5t-45 70.5q-47 45 -201 108 l-24 11z" />
<glyph unicode="%" horiz-adv-x="1374" d="M123 903q0 99 27.5 198t74.5 169q34 52 85.5 81t111.5 29q98 0 151.5 -62.5t53.5 -178.5q0 -81 -31 -182.5t-76 -168.5q-34 -51 -89 -80.5t-114 -29.5q-91 0 -142.5 60.5t-51.5 164.5zM152 0l1028 1370h108l-1028 -1370h-108zM225 901q0 -135 94 -135q75 0 125 90 q35 64 57.5 145t22.5 144q0 147 -94 147q-77 0 -123 -78q-37 -60 -59.5 -146.5t-22.5 -166.5zM819 209q0 98 28 198.5t75 170.5q34 52 84.5 81t109.5 29q100 0 153.5 -63t53.5 -179q0 -81 -31 -182.5t-75 -167.5q-34 -51 -89 -80.5t-114 -29.5q-91 0 -143 60t-52 163z M922 209q0 -135 94 -135q75 0 125 90q35 65 57.5 145t22.5 144q0 147 -95 147q-76 0 -122 -78q-37 -60 -59.5 -146.5t-22.5 -166.5z" />
<glyph unicode="&#x26;" horiz-adv-x="1294" d="M106 371q0 213 181 338q68 48 207 114q-59 85 -82 146.5t-23 134.5q0 121 84.5 198.5t216.5 77.5q125 0 206 -75.5t81 -190.5q0 -141 -127 -252q-45 -38 -166 -94l281 -430q37 49 67.5 144t32.5 161h139q-30 -264 -164 -422l144 -221h-154l-78 125 q-113 -87 -207.5 -124.5t-199.5 -37.5q-189 0 -314 116.5t-125 291.5zM244 362q0 -121 84.5 -201.5t212.5 -80.5q173 0 340 153l-320 484q-107 -51 -166 -90q-151 -102 -151 -265zM526 1098q0 -99 92 -228l29 15q191 96 191 231q0 64 -42 106t-106 42q-72 0 -118 -46.5 t-46 -119.5z" />
<glyph unicode="'" horiz-adv-x="360" d="M193 819l96 547h143l-135 -547h-104z" />
<glyph unicode="(" horiz-adv-x="657" d="M102 307q0 207 57.5 386t186.5 372q114 174 244 301h127q-84 -81 -147.5 -163.5t-123.5 -188.5q-108 -190 -156 -380t-48 -427q0 -166 25 -296.5t83 -268.5h-100q-148 357 -148 665z" />
<glyph unicode=")" horiz-adv-x="657" d="M-63 -358q247 256 361 534.5t114 626.5q0 322 -109 563h100q70 -153 109 -328.5t39 -335.5q0 -285 -111.5 -527t-376.5 -533h-126z" />
<glyph unicode="*" horiz-adv-x="765" d="M221 1174l53 94l193 -119l41 223l106 -22l-51 -220l223 29l11 -108l-224 -19l97 -203l-99 -43l-88 207l-164 -153l-71 80l172 145z" />
<glyph unicode="+" d="M86 653v76h420v391h78v-391h422v-76h-422v-391h-78v391h-420z" />
<glyph unicode="," horiz-adv-x="481" d="M-10 -272l20 92q40 12 60.5 42.5t46.5 117.5l6 20h-82l41 195h182l-39 -181q-31 -146 -84.5 -211.5t-150.5 -74.5z" />
<glyph unicode="-" horiz-adv-x="444" d="M-12 455l26 127h445l-27 -127h-444z" />
<glyph unicode="." horiz-adv-x="481" d="M41 0l41 195h180l-41 -195h-180z" />
<glyph unicode="/" horiz-adv-x="659" d="M0 0l608 1380h127l-606 -1380h-129z" />
<glyph unicode="0" horiz-adv-x="1161" d="M133 461q0 184 44 359t122 306q73 123 183 188.5t239 65.5q174 0 278 -116q55 -64 80 -151t25 -218q0 -173 -51 -363t-135 -327q-68 -111 -173 -171.5t-231 -60.5q-184 0 -282.5 126t-98.5 362zM272 438q0 -166 64 -257t180 -91q86 0 161 48.5t128 137.5q72 125 115 292 t43 327q0 369 -234 369q-94 0 -178.5 -55t-136.5 -150q-65 -119 -103.5 -288t-38.5 -333z" />
<glyph unicode="1" horiz-adv-x="1161" d="M356 963l23 108q142 25 264 104t168 177h117l-289 -1352h-135l229 1083q-191 -105 -377 -120z" />
<glyph unicode="2" horiz-adv-x="1161" d="M92 0q10 141 54.5 234t141 175t281.5 187q117 67 172.5 105.5t94.5 82.5q41 44 64.5 103t23.5 119q0 112 -70.5 179.5t-187.5 67.5q-131 0 -220.5 -88t-111.5 -239h-135q26 207 152 330.5t313 123.5q175 0 287 -106t112 -273q0 -166 -121 -296q-53 -56 -115 -100 t-184 -111q-197 -107 -282 -186t-113 -181h704l-26 -127h-834z" />
<glyph unicode="3" horiz-adv-x="1161" d="M98 354v29h138v-21q0 -118 82.5 -195t207.5 -77q141 0 239.5 95t98.5 231q0 115 -78 178t-221 63q-43 0 -84 -4l25 119q50 -6 80 -6q163 0 253.5 72.5t90.5 201.5q0 102 -68.5 163t-183.5 61q-124 0 -207 -73t-106 -202h-138q28 160 115 254q60 65 150.5 101t193.5 36 q169 0 276 -92.5t107 -238.5q0 -220 -240 -340q94 -51 136.5 -117t42.5 -164q0 -195 -139.5 -325t-350.5 -130q-188 0 -304 105.5t-116 275.5z" />
<glyph unicode="4" horiz-adv-x="1161" d="M80 336l24 117l805 899h119l-190 -899h202l-24 -117h-203l-72 -336h-133l72 336h-600zM260 453h445l139 653z" />
<glyph unicode="5" horiz-adv-x="1161" d="M129 354h139q1 -124 75.5 -194t205.5 -70q154 0 261.5 112t107.5 273q0 129 -80 209t-209 80q-95 0 -174.5 -37.5t-130.5 -105.5h-125l219 731h678l-27 -127h-555l-129 -422q130 78 270 78q175 0 286.5 -113t111.5 -291q0 -215 -147 -359.5t-367 -144.5q-192 0 -298 98.5 t-112 282.5z" />
<glyph unicode="6" horiz-adv-x="1161" d="M143 502q0 187 45.5 350t124 279t189.5 182.5t237 66.5q159 0 261 -91.5t102 -235.5v-19h-139q0 52 -8 83t-29 59q-63 88 -189 88q-158 0 -277 -148t-163 -401q88 91 169.5 130.5t182.5 39.5q177 0 285 -110t108 -290q0 -219 -139 -365.5t-346 -146.5q-196 0 -305 139 t-109 390zM293 389q0 -135 73.5 -217t196.5 -82q145 0 240.5 109.5t95.5 273.5q0 139 -69.5 217t-194.5 78q-145 0 -243.5 -109.5t-98.5 -269.5z" />
<glyph unicode="7" horiz-adv-x="1161" d="M246 1225l26 127h914l-27 -127q-204 -227 -410.5 -590t-285.5 -635h-148q209 651 703 1225h-772z" />
<glyph unicode="8" horiz-adv-x="1161" d="M115 356q0 140 78.5 240.5t224.5 144.5q-158 93 -158 267q0 158 122.5 265t305.5 107q170 0 276.5 -91.5t106.5 -237.5q0 -68 -25 -131t-71 -109q-28 -28 -61 -47t-93 -43q201 -89 201 -305q0 -191 -137 -317t-346 -126q-188 0 -306 106.5t-118 276.5zM254 360 q0 -118 82.5 -194t210.5 -76q142 0 239 92.5t97 229.5q0 123 -78.5 193.5t-216.5 70.5q-148 0 -241 -88t-93 -228zM403 1004q0 -103 66 -163.5t180 -60.5q123 0 203 73t80 185q0 102 -68 164t-180 62q-122 0 -201.5 -73t-79.5 -187z" />
<glyph unicode="9" horiz-adv-x="1161" d="M127 317h135q7 -109 68.5 -168t165.5 -59q101 0 190 65t152 185q44 84 94 289q-85 -83 -164 -119.5t-174 -36.5q-180 0 -290.5 112t-110.5 294q0 209 140 355t341 146q178 0 287 -112q129 -132 129 -412q0 -128 -23 -252.5t-72.5 -238.5t-120 -201t-171.5 -139t-220 -52 q-102 0 -179.5 40.5t-121.5 117.5q-52 86 -55 186zM342 881q0 -134 70 -212.5t190 -78.5q146 0 244 107t98 266q0 137 -72 219t-192 82q-143 0 -240.5 -110.5t-97.5 -272.5z" />
<glyph unicode=":" horiz-adv-x="481" d="M41 0l41 195h180l-41 -195h-180zM207 778l41 195h180l-41 -195h-180z" />
<glyph unicode=";" horiz-adv-x="481" d="M-10 -272l20 92q40 12 60.5 42.5t46.5 117.5l6 20h-82l41 195h182l-39 -181q-31 -146 -84.5 -211.5t-150.5 -74.5zM209 795l41 194h180l-41 -194h-180z" />
<glyph unicode="&#x3c;" d="M102 627v116l887 410v-131l-745 -336l745 -338v-131z" />
<glyph unicode="=" d="M86 512v74h920v-74h-920zM86 797v73h920v-73h-920z" />
<glyph unicode="&#x3e;" d="M102 217v133l746 336l-746 336v131l887 -410v-116z" />
<glyph unicode="?" horiz-adv-x="958" d="M170 969q5 197 125.5 314.5t318.5 117.5q177 0 287.5 -99.5t110.5 -257.5q0 -111 -62.5 -198t-206.5 -176q-92 -57 -134.5 -97t-63 -91t-33.5 -146h-139q25 164 79.5 247.5t192.5 168.5q131 80 179 141t48 149q0 106 -70.5 174t-180.5 68q-131 0 -217 -87t-95 -228h-139z M297 0l41 184h162l-41 -184h-162z" />
<glyph unicode="@" horiz-adv-x="1417" d="M96 657q0 141 53.5 268.5t145 220t218.5 146.5t267 54q167 0 306.5 -74t219.5 -202.5t80 -283.5q0 -235 -174 -380q-126 -107 -247 -107q-60 0 -97 31t-43 88q-55 -61 -107.5 -88t-115.5 -27q-91 0 -148 67t-57 173q0 120 54.5 233t144 182.5t184.5 69.5q132 0 185 -135 l39 104h77l-166 -481q-20 -59 -20 -88q0 -37 22.5 -56.5t63.5 -19.5q101 0 207 101q139 133 139 331q0 141 -72 257.5t-197 182.5t-276 66q-172 0 -315 -83.5t-225 -229t-82 -320.5q0 -128 47.5 -242t128.5 -196t194 -130t238 -48q164 0 308 83t218 218l62 -2 q-29 -68 -64.5 -114t-95.5 -93q-191 -149 -428 -149q-138 0 -262.5 53t-214.5 142.5t-142.5 214.5t-52.5 263zM481 526q0 -80 36 -126t97 -46q84 0 152 68q28 29 46.5 63.5t43.5 100.5l47 129q27 77 27 110q0 63 -39 107.5t-94 44.5q-76 0 -150 -66t-120 -171.5t-46 -213.5z " />
<glyph unicode="A" horiz-adv-x="1214" d="M-61 0l790 1366h154l229 -1366h-149l-68 422h-563l-236 -422h-157zM397 539h480l-101 682z" />
<glyph unicode="B" horiz-adv-x="1257" d="M61 0l291 1366h355q135 0 212.5 -14.5t135.5 -51.5q60 -37 94.5 -106t34.5 -154q0 -239 -258 -329q105 -31 162 -109.5t57 -193.5q0 -92 -41 -173t-113 -135q-82 -59 -181 -79.5t-300 -20.5h-449zM223 117h305q152 0 227 13t130 50q57 37 90 101.5t33 138.5 q0 59 -23.5 108.5t-64.5 75.5q-44 29 -108.5 40t-190.5 11h-283zM362 772h267q128 0 195.5 13.5t121.5 50.5q101 72 101 204q0 111 -76 162q-39 27 -94.5 37t-165.5 10h-248z" />
<glyph unicode="C" horiz-adv-x="1374" d="M125 551q0 196 72.5 374.5t203.5 303.5q184 172 467 172q219 0 353 -111.5t153 -308.5h-139q-15 143 -111.5 223t-253.5 80q-172 0 -311 -94.5t-218 -262t-79 -374.5q0 -224 108 -347.5t304 -123.5q170 0 296.5 96t180.5 266h147q-47 -214 -221 -346.5t-409 -132.5 q-254 0 -398.5 156t-144.5 430z" />
<glyph unicode="D" horiz-adv-x="1349" d="M61 0l291 1366h338q172 0 272.5 -26t170.5 -89q75 -69 116 -180.5t41 -247.5q0 -183 -66 -352t-184 -289q-131 -134 -290 -162q-106 -20 -340 -20h-349zM223 117h215q214 0 318.5 34t195.5 132q96 103 148.5 241.5t52.5 288.5q0 229 -121 344q-54 51 -133 71.5t-219 20.5 h-217z" />
<glyph unicode="E" horiz-adv-x="1097" d="M61 0l291 1366h783l-25 -117h-647l-103 -483h662l-25 -117h-661l-113 -532h742l-25 -117h-879z" />
<glyph unicode="F" horiz-adv-x="976" d="M61 0l291 1366h721l-24 -117h-578l-106 -495h600l-25 -117h-600l-135 -637h-144z" />
<glyph unicode="G" horiz-adv-x="1452" d="M133 549q0 180 56 338t152.5 271t231.5 178t289 65q130 0 235.5 -47.5t174.5 -136.5q38 -51 59 -107t31 -139h-139q-23 151 -116.5 232t-244.5 81q-163 0 -299.5 -96.5t-214.5 -264t-78 -368.5q0 -221 106 -348t290 -127q135 0 252.5 72t199.5 204q70 112 88 234h-461 l23 108h586l-148 -698h-121l35 193q-109 -120 -221.5 -174t-253.5 -54q-233 0 -372.5 159t-139.5 425z" />
<glyph unicode="H" horiz-adv-x="1323" d="M61 0l291 1366h135l-125 -590h709l125 590h137l-291 -1366h-135l140 659h-709l-139 -659h-138z" />
<glyph unicode="I" horiz-adv-x="477" d="M61 0l291 1366h135l-288 -1366h-138z" />
<glyph unicode="J" horiz-adv-x="927" d="M0 266q0 58 18 172h134q-21 -116 -21 -162q0 -89 54.5 -141.5t146.5 -52.5q61 0 112.5 27.5t79.5 74.5t43.5 99.5t46.5 199.5l187 883h137l-195 -917q-34 -161 -53.5 -221t-54.5 -113q-46 -69 -126.5 -109.5t-174.5 -40.5q-149 0 -241.5 83t-92.5 218z" />
<glyph unicode="K" horiz-adv-x="1247" d="M61 0l291 1366h135l-151 -721l780 721h187l-627 -565l481 -801h-164l-418 713l-280 -256l-96 -457h-138z" />
<glyph unicode="L" horiz-adv-x="1077" d="M61 0l291 1366h135l-264 -1249h727l-24 -117h-865z" />
<glyph unicode="M" horiz-adv-x="1607" d="M61 0l291 1366h189l137 -780l22 -150q2 -14 31 -200l12 -74q114 215 222 405l450 799h203l-291 -1366h-135l154 725q37 173 100 451l-668 -1176h-129l-211 1176l-51 -271q-7 -43 -16.5 -90.5t-10.5 -50.5l-161 -764h-138z" />
<glyph unicode="N" horiz-adv-x="1359" d="M61 0l291 1366h150q262 -634 340 -834q117 -303 139 -354q30 143 55 271q16 64 33 149l164 768h137l-291 -1366h-155l-330 801q-2 4 -64 168l-81 211q-10 -54 -29 -136q-33 -154 -70 -329.5t-81.5 -385t-69.5 -329.5h-138z" />
<glyph unicode="O" horiz-adv-x="1484" d="M143 571q0 183 61 348t171 283q89 94 215 146.5t262 52.5q259 0 414 -158q149 -155 149 -444q0 -170 -59 -337t-160 -286q-88 -100 -214.5 -155.5t-268.5 -55.5q-261 0 -415.5 164t-154.5 442zM281 567q0 -221 117 -353t313 -132q162 0 291.5 90.5t202.5 250t73 357.5 q0 243 -111 373.5t-317 130.5q-116 0 -215.5 -46t-169.5 -132q-87 -104 -135.5 -246.5t-48.5 -292.5z" />
<glyph unicode="P" horiz-adv-x="1138" d="M61 0l291 1366h375q214 0 322 -86q55 -45 84.5 -118.5t29.5 -160.5q0 -193 -129 -307q-66 -59 -153.5 -82.5t-237.5 -23.5h-319l-125 -588h-138zM348 705h287q121 0 186 16t111 57q44 40 70 99.5t26 123.5q0 121 -80 185q-42 36 -100.5 49.5t-171.5 13.5h-213z" />
<glyph unicode="Q" horiz-adv-x="1484" d="M143 571q0 237 91.5 427t254.5 296.5t367 106.5q258 0 408.5 -158.5t150.5 -429.5q0 -230 -84 -421.5t-235 -305.5l166 -156l-76 -80l-189 179q-133 -64 -284 -64q-261 0 -415.5 164t-154.5 442zM281 567q0 -221 117.5 -353t314.5 -132q103 0 188 35l-139 131l76 80 l166 -156q128 88 201 253t73 366q0 233 -112.5 363t-313.5 130q-116 0 -217 -46t-170 -132q-87 -105 -135.5 -247t-48.5 -292z" />
<glyph unicode="R" horiz-adv-x="1294" d="M61 0l291 1366h426q124 0 197.5 -17t130.5 -59q58 -43 90.5 -113.5t32.5 -154.5q0 -141 -74.5 -231.5t-218.5 -122.5q82 -37 113.5 -88.5t31.5 -147.5q0 -63 -8 -133l-10 -94q-6 -53 -6 -90q0 -67 26 -115h-153q-8 44 -8 125q0 37 10 127l10 102q2 20 2 64q0 109 -49 155 q-32 29 -77.5 38.5t-158.5 9.5h-329l-131 -621h-138zM354 737h279q140 0 215.5 13t128.5 45q52 32 83.5 94t31.5 133q0 111 -72 170q-40 32 -93 44.5t-153 12.5h-311z" />
<glyph unicode="S" horiz-adv-x="1196" d="M74 397v45h139q0 -86 10.5 -134t38.5 -89q43 -64 128 -100.5t194 -36.5q159 0 258.5 74t99.5 192q0 43 -16.5 85.5t-44.5 70.5q-28 26 -68.5 48t-132.5 60l-162 68q-157 66 -224 142.5t-67 191.5q0 170 133 278.5t342 108.5q227 0 345.5 -110.5t121.5 -325.5h-137 q-1 85 -9.5 123.5t-31.5 72.5q-40 58 -114.5 90.5t-169.5 32.5q-150 0 -246 -71t-96 -183q0 -77 52 -128.5t187 -106.5l125 -52q112 -46 169 -79t97 -76q84 -94 84 -223q0 -179 -139 -289.5t-365 -110.5q-230 0 -365.5 117t-135.5 315z" />
<glyph unicode="T" horiz-adv-x="1015" d="M176 1249l25 117h975l-25 -117h-401l-265 -1249h-137l266 1249h-438z" />
<glyph unicode="U" horiz-adv-x="1349" d="M152 328q0 109 36 272l164 766h137l-178 -838q-18 -85 -18 -166q0 -130 86 -205t235 -75q187 0 293 115q50 55 80.5 130t61.5 220l176 819h135l-180 -852q-35 -167 -75 -256t-110 -156q-143 -137 -377 -137q-210 0 -338 100t-128 263z" />
<glyph unicode="V" horiz-adv-x="1069" d="M154 1366h143l152 -963q36 -221 36 -231q22 49 43 90q29 61 66 141l457 963h151l-665 -1366h-146z" />
<glyph unicode="W" horiz-adv-x="1570" d="M154 1366h141l72 -881l18 -286q55 154 98 262l367 905h154l102 -881l10 -96q3 -50 8 -82l11 -80l2 -28q10 23 10 26q19 61 76 221l340 920h141l-524 -1366h-144q-15 133 -43 372.5t-50.5 436.5t-41.5 373q-25 -69 -96 -248l-377 -934h-145z" />
<glyph unicode="X" horiz-adv-x="1064" d="M-35 0l529 702l-320 664h160l244 -547l405 547h166l-508 -664l350 -702h-155l-283 584l-422 -584h-166z" />
<glyph unicode="Y" horiz-adv-x="1011" d="M174 1366h152q12 -38 68 -227t87 -289l25 -78l22 -78l9 -22q97 143 170 243l325 451h154l-606 -825l-115 -541h-137l118 555z" />
<glyph unicode="Z" horiz-adv-x="1069" d="M-12 0l30 139l928 1110h-756l27 117h930l-25 -117l-948 -1132h819l-24 -117h-981z" />
<glyph unicode="[" horiz-adv-x="614" d="M-20 -350l366 1720h295l-25 -117h-161l-318 -1486h195l-25 -117h-327z" />
<glyph unicode="\" horiz-adv-x="659" d="M293 1380h127l22 -1380h-129z" />
<glyph unicode="]" horiz-adv-x="614" d="M-29 -350l25 117h162l317 1486h-194l24 117h328l-367 -1720h-295z" />
<glyph unicode="^" d="M104 776l365 592h154l364 -592h-129l-313 502l-314 -502h-127z" />
<glyph unicode="_" d="M0 -152h1024v-90h-1024v90z" />
<glyph unicode="`" d="M322 1399h188l192 -264h-112z" />
<glyph unicode="a" horiz-adv-x="1019" d="M47 250q0 78 34 143t93 99q47 26 113 42t192 31l156 19q64 8 89 16t32 25q8 19 16 63t8 70q0 69 -59.5 109t-161.5 40q-119 0 -184.5 -47.5t-100.5 -159.5h-135q28 85 58 137t73 87q51 43 131.5 67.5t171.5 24.5q158 0 246 -66t88 -186q0 -31 -2.5 -49.5t-19.5 -93.5 l-80 -379q-10 -45 -10 -74q0 -38 20 -59t55 -21q26 0 64 18l-23 -106q-56 -16 -108 -16q-62 0 -91 31t-36 104q-134 -146 -318 -146q-143 0 -227 75t-84 202zM176 256q0 -79 51.5 -126.5t137.5 -47.5q78 0 146.5 31.5t113.5 89.5q34 42 55.5 98.5t46.5 157.5l10 43 q-88 -19 -149 -27l-139 -16q-78 -9 -122.5 -23t-80.5 -41q-70 -54 -70 -139z" />
<glyph unicode="b" horiz-adv-x="1120" d="M41 0l291 1366h123l-107 -498q85 82 157.5 116t160.5 34q167 0 267.5 -113t100.5 -301q0 -122 -42.5 -240t-119.5 -212q-147 -179 -364 -179q-110 0 -184 44t-127 139l-33 -156h-123zM252 371q0 -129 68 -209t178 -80q174 0 288 160q55 78 86 174.5t31 191.5 q0 141 -67 221t-185 80q-91 0 -168 -49.5t-126.5 -128.5t-77 -173t-27.5 -187z" />
<glyph unicode="c" horiz-adv-x="1054" d="M72 408q0 267 149.5 437.5t382.5 170.5q177 0 283 -94.5t114 -257.5h-135q-8 61 -18 92.5t-33 58.5q-73 92 -211 92q-92 0 -168 -44t-124 -115.5t-74.5 -159t-26.5 -178.5q0 -152 77.5 -240t211.5 -88q104 0 188.5 65.5t130.5 182.5h139q-64 -172 -187 -264.5t-286 -92.5 q-193 0 -303 116t-110 319z" />
<glyph unicode="d" horiz-adv-x="1116" d="M76 389q0 170 69 314.5t188 228.5t259 84q111 0 192.5 -53t122.5 -152l119 555h123l-291 -1366h-123l25 119q-149 -146 -322 -146q-166 0 -264 113t-98 303zM207 387q0 -136 69 -220.5t179 -84.5q77 0 152.5 42.5t119.5 111.5q49 78 83 190.5t34 198.5q0 132 -65.5 207 t-182.5 75q-67 0 -130.5 -29.5t-109.5 -82.5q-68 -80 -108.5 -191t-40.5 -217z" />
<glyph unicode="e" horiz-adv-x="1079" d="M82 403q0 171 69.5 311.5t191 220t269.5 79.5q173 0 273 -110t100 -300q0 -60 -10 -129h-762q-6 -53 -6 -90q0 -132 78.5 -217.5t199.5 -85.5q112 0 198.5 64t129.5 178h131q-57 -170 -176 -260.5t-285 -90.5q-189 0 -295 113.5t-106 316.5zM233 573h623l2 60 q4 125 -66 198.5t-190 73.5q-129 0 -230 -90.5t-139 -241.5z" />
<glyph unicode="f" horiz-adv-x="505" d="M70 0l186 891h-182l20 98h185l32 146q22 94 41.5 137t53.5 69q53 41 151 41q35 0 90 -6l-22 -106q-36 4 -47 4q-66 0 -96.5 -34.5t-53.5 -135.5l-27 -115h193l-21 -98h-194l-186 -891h-123z" />
<glyph unicode="g" horiz-adv-x="1114" d="M43 -39h137q-2 -12 -2 -33q0 -77 59 -118t169 -41q150 0 227 73t115 252q-141 -121 -291 -121q-170 0 -274.5 119.5t-104.5 313.5q0 166 68 306.5t185.5 222t256.5 81.5q209 0 319 -191l35 164h123l-162 -758q-40 -190 -70 -276t-79 -150q-114 -145 -353 -145 q-120 0 -206.5 40t-124.5 114q-17 32 -22 58.5t-5 88.5zM211 401q0 -146 72.5 -232.5t195.5 -86.5q76 0 154 45t119 113q41 69 69.5 176t28.5 196q0 135 -67 215t-181 80q-166 0 -278.5 -145.5t-112.5 -360.5z" />
<glyph unicode="h" horiz-adv-x="1105" d="M41 0l291 1366h123l-111 -522q93 93 178 133.5t185 40.5q137 0 212.5 -66t75.5 -184q0 -64 -14 -127l-135 -641h-123l139 657q10 55 10 82q0 170 -188 170q-140 0 -252 -92q-63 -53 -99.5 -122.5t-62.5 -190.5l-106 -504h-123z" />
<glyph unicode="i" horiz-adv-x="423" d="M41 0l211 989h123l-211 -989h-123zM291 1178l41 188h123l-41 -188h-123z" />
<glyph unicode="j" horiz-adv-x="423" d="M-162 -332l25 107q37 -6 53 -6q48 0 68.5 28.5t40.5 124.5l227 1067h123l-232 -1093q-29 -139 -72 -187.5t-137 -48.5q-39 0 -96 8zM293 1178l39 188h123l-39 -188h-123z" />
<glyph unicode="k" horiz-adv-x="1003" d="M41 0l291 1366h123l-185 -864l588 487h184l-448 -358l301 -631h-145l-250 553l-262 -209l-74 -344h-123z" />
<glyph unicode="l" horiz-adv-x="423" d="M41 0l291 1366h123l-291 -1366h-123z" />
<glyph unicode="m" horiz-adv-x="1628" d="M41 0l211 989h123l-27 -121q91 84 162 116t164 32q101 0 159 -41t78 -129q82 89 167.5 129.5t191.5 40.5q117 0 186.5 -59.5t69.5 -159.5q0 -55 -23 -172l-133 -625h-123l127 600q25 118 25 164q0 69 -39.5 106t-112.5 37q-69 0 -134.5 -28.5t-111.5 -79.5 q-47 -53 -78 -127t-59 -203l-98 -469h-123l127 600q27 135 27 166q0 67 -38.5 104t-107.5 37q-75 0 -147 -37.5t-121 -103.5q-43 -57 -70.5 -127.5t-52.5 -185.5l-96 -453h-123z" />
<glyph unicode="n" horiz-adv-x="1058" d="M41 0l211 989h123l-27 -127q86 83 163.5 118.5t170.5 35.5q129 0 199.5 -64.5t70.5 -181.5q0 -59 -22 -166l-129 -604h-123l127 592q24 114 24 168q0 69 -43 108t-118 39q-130 0 -242 -94q-63 -52 -95.5 -116.5t-58.5 -186.5l-108 -510h-123z" />
<glyph unicode="o" horiz-adv-x="1138" d="M84 416q0 171 69.5 308t192.5 214.5t275 77.5q201 0 313.5 -115t112.5 -321q0 -124 -44.5 -246t-121.5 -207q-66 -73 -162 -113.5t-205 -40.5q-197 0 -313.5 120.5t-116.5 322.5zM213 416q0 -152 83 -243t222 -91q172 0 286 136t114 343q0 166 -78.5 256t-223.5 90 q-169 0 -274 -123q-60 -72 -94.5 -169.5t-34.5 -198.5z" />
<glyph unicode="p" horiz-adv-x="1120" d="M-27 -313l277 1302h123l-27 -129q78 85 152 121.5t166 36.5q163 0 266.5 -117.5t103.5 -302.5q0 -115 -41.5 -232.5t-115.5 -211.5q-68 -86 -161 -133.5t-196 -47.5q-104 0 -187 49t-136 140l-101 -475h-123zM256 356q0 -125 69.5 -199.5t184.5 -74.5q171 0 287 166 q108 154 108 352q0 148 -67 227.5t-191 79.5q-80 0 -151 -37.5t-117 -103.5q-58 -83 -90.5 -192t-32.5 -218z" />
<glyph unicode="q" horiz-adv-x="1116" d="M82 391q0 174 66 317.5t182.5 225.5t257.5 82q217 0 321 -191l37 164h121l-276 -1302h-123l90 417q-137 -131 -309 -131q-170 0 -268.5 112t-98.5 306zM211 399q0 -149 68 -233t188 -84q88 0 169 50t126 134q42 76 71 181.5t29 181.5q0 130 -69 204t-191 74 q-164 0 -277.5 -147t-113.5 -361z" />
<glyph unicode="r" horiz-adv-x="657" d="M41 0l213 1006h123l-37 -181q63 102 134 147.5t169 45.5q41 0 78 -12l-25 -111q-41 8 -65 8q-276 0 -398 -577l-69 -326h-123z" />
<glyph unicode="s" horiz-adv-x="956" d="M43 334h137v-37q0 -97 73.5 -156t192.5 -59q107 0 176.5 51.5t69.5 130.5q0 55 -38 90.5t-140 75.5l-123 49q-215 86 -215 256q0 123 101 202t258 79q169 0 266 -80t102 -221h-125q0 88 -64.5 140t-172.5 52q-101 0 -167.5 -48t-66.5 -120q0 -57 35 -90.5t135 -73.5 l113 -45q126 -51 178.5 -109.5t52.5 -146.5q0 -132 -105.5 -216.5t-271.5 -84.5q-118 0 -208.5 39.5t-141.5 112.5q-25 37 -36.5 83t-14.5 126z" />
<glyph unicode="t" horiz-adv-x="559" d="M96 881l21 108h172l67 307h123l-67 -307h186l-23 -108h-184l-125 -588q-18 -91 -18 -121q0 -78 86 -78q56 0 139 27l-22 -105q-86 -30 -160 -30q-80 0 -125 39.5t-45 109.5q0 59 22 158l125 588h-172z" />
<glyph unicode="u" horiz-adv-x="1081" d="M98 209q0 64 25 180l127 600h123l-135 -639q-17 -75 -17 -123q0 -69 48 -107t137 -38q85 0 162.5 42.5t131.5 117.5q47 64 69.5 127t57.5 229l82 391h123l-211 -989h-123l29 129q-93 -83 -176.5 -119.5t-177.5 -36.5q-125 0 -200 64.5t-75 171.5z" />
<glyph unicode="v" horiz-adv-x="874" d="M88 989h139l99 -579q8 -50 18 -107.5t15.5 -91t7.5 -47.5q30 58 419 825h156l-528 -989h-152z" />
<glyph unicode="w" horiz-adv-x="1349" d="M88 989h137q93 -781 99 -837q4 12 36 94q6 14 13.5 32l12.5 30t7 18q54 130 157.5 370.5t125.5 292.5h147l68 -577q2 -17 4 -32.5t3 -23.5t2.5 -21.5t2.5 -31.5l6 -61l9 -68l2 -22q7 19 13 33.5t13.5 31.5t14.5 35q43 112 95 235t115.5 270.5t98.5 231.5h147l-442 -989 h-139l-76 532q-3 21 -21 183q-10 96 -12 119l-43 -121q-44 -107 -95 -225t-115 -265t-97 -223h-137z" />
<glyph unicode="x" horiz-adv-x="892" d="M-55 0l409 494l-274 495h158l204 -387l306 387h170l-414 -495l280 -494h-153l-213 391l-303 -391h-170z" />
<glyph unicode="y" horiz-adv-x="862" d="M-29 -334l23 111q40 -6 55 -6q41 0 66 6.5t43 23.5q19 18 55.5 74.5t60.5 108.5l19 39l-232 966h144q6 -26 59.5 -274t81.5 -377l14 -70q3 -14 5.5 -25.5t3.5 -17.5t2 -10.5t1.5 -7t0.5 -4.5l6 -27q71 143 401 813h150l-588 -1122q-61 -118 -123 -163.5t-162 -45.5 q-37 0 -86 8z" />
<glyph unicode="z" horiz-adv-x="880" d="M-39 0l21 100l737 789h-619l23 100h766l-27 -123l-715 -766h627l-22 -100h-791z" />
<glyph unicode="{" d="M270 -207q0 40 19 133l69 334q11 50 11 82q0 47 -20 74.5t-66 42.5l20 98q70 22 105.5 65t54.5 130l80 368q28 136 98 203q43 38 103.5 55t154.5 17h25l-25 -115q-108 -3 -159 -46t-74 -149l-76 -352q-22 -99 -57 -148t-103 -79q20 -12 34 -25t23 -28.5t13 -34.5t4 -43 q0 -37 -12 -103l-72 -338q-12 -58 -12 -98q0 -57 42.5 -80t118.5 -26l-22 -109q-10 -2 -23 -2q-135 0 -194.5 35.5t-59.5 138.5z" />
<glyph unicode="|" d="M479 -342v1708h133v-1708h-133z" />
<glyph unicode="}" d="M98 -379l25 115q108 3 159 45.5t74 148.5l76 351q22 100 57 149.5t103 79.5q-40 23 -57 53.5t-17 77.5q0 36 12 102l72 336q12 62 12 101q0 104 -161 104l22 111q137 0 193 -23q84 -40 84 -149q0 -40 -19 -133l-69 -336q-11 -63 -11 -82q0 -90 86 -115l-20 -100 q-72 -22 -106.5 -64t-53.5 -129l-80 -368q-30 -146 -98 -205q-78 -72 -258 -72q-13 0 -25 2z" />
<glyph unicode="~" horiz-adv-x="1366" d="M227 1257q108 220 273 220q72 0 237 -82q84 -42 123.5 -56t75.5 -14q57 0 103.5 36.5t93.5 119.5l73 -56q-101 -219 -282 -219q-44 0 -85.5 16t-172.5 81q-107 55 -172 55q-56 0 -101 -37t-92 -121z" />
<glyph unicode="&#xa1;" horiz-adv-x="489" d="M-10 -342l100 477l150 559h100l-104 -590l-97 -446h-149zM233 840l39 184h162l-39 -184h-162z" />
<glyph unicode="&#xa2;" horiz-adv-x="1161" d="M162 612q0 195 87.5 349t233.5 219q87 40 211 43l37 172h92l-39 -181q136 -20 219 -113t89 -233h-136q-8 102 -54.5 159t-139.5 79l-174 -819q101 -3 190.5 66t130.5 182h140q-64 -171 -186.5 -264t-282.5 -93h-15l-43 -203h-92l45 213q-152 29 -232.5 139t-80.5 285z M301 614q0 -251 197 -313l174 811q-100 -6 -174 -59q-86 -60 -141.5 -183.5t-55.5 -255.5z" />
<glyph unicode="&#xa3;" horiz-adv-x="1161" d="M94 70q89 59 133 116q45 59 72 143t27 165q0 19 -9 118h-192l27 127h159q-30 133 -30 219q0 192 122.5 317.5t311.5 125.5q166 0 264 -100t98 -267q0 -5 -4 -51h-125q4 36 4 39q0 125 -61 193.5t-178 68.5q-123 0 -205 -88q-47 -49 -66.5 -108t-19.5 -152q0 -85 24 -197 h377l-26 -127h-344q10 -64 10 -106q0 -85 -38.5 -171t-137.5 -220q83 49 174 49q50 0 168 -31q112 -33 164 -33q94 0 194 62l-26 -133q-64 -27 -102 -36t-91 -9q-48 0 -84 6t-119 28q-113 29 -180 29q-56 0 -98.5 -14.5t-139.5 -67.5z" />
<glyph unicode="&#xa4;" horiz-adv-x="1398" d="M178 1178l74 73l188 -190q84 59 149 82.5t144 23.5q80 0 144 -23t147 -83l190 188l72 -71l-188 -189q104 -138 104 -291q0 -76 -22 -139t-78 -147l186 -189l-71 -73l-189 188q-134 -105 -287 -105q-76 0 -145.5 24.5t-153.5 80.5l-186 -186l-72 71l183 189 q-103 133 -103 290q0 75 24 140t81 147zM383 700q0 -146 102.5 -249t247.5 -103t247.5 103t102.5 249q0 145 -102.5 250t-243.5 105q-149 0 -251.5 -103t-102.5 -252z" />
<glyph unicode="&#xa5;" horiz-adv-x="1161" d="M164 541l26 127h287l-82 243h-219l27 127h149l-110 328h153l97 -328h372l236 328h155l-239 -328h143l-29 -127h-208l-181 -243h269l-27 -127h-334l-117 -541h-135l115 541h-348zM530 911l43 -139q7 -23 13.5 -43.5t10.5 -31.5t7 -25q127 184 144 205l26 34h-244z" />
<glyph unicode="&#xa6;" d="M479 313h133v-655h-133v655zM479 688v678h133v-678h-133z" />
<glyph unicode="&#xa7;" horiz-adv-x="1177" d="M143 31h146v-19q0 -61 6.5 -92t23.5 -61q51 -88 166 -88q89 0 147 53t58 133q0 59 -30.5 107.5t-122.5 132.5l-140 127q-95 88 -121.5 115.5t-50.5 62.5q-53 82 -53 176q0 207 242 289q-24 59 -29.5 81.5t-5.5 55.5q0 125 94 207t238 82q149 0 232 -85t83 -237 q0 -23 -2 -37h-127q2 16 2 41q0 98 -46.5 149.5t-135.5 51.5q-85 0 -142 -48t-57 -120q0 -59 47 -121q23 -29 39.5 -45t89.5 -82l144 -131q110 -100 151 -169t41 -157q0 -209 -246 -288q47 -85 47 -158q0 -126 -100.5 -214.5t-245.5 -88.5q-97 0 -178 43.5t-121 116.5 q-23 40 -32 88.5t-11 128.5zM311 678q0 -57 34.5 -108t129.5 -136l98 -88q86 -77 154 -149q164 71 164 202q0 59 -39.5 117.5t-142.5 153.5l-93 84q-100 90 -135 133q-82 -34 -126 -88.5t-44 -120.5z" />
<glyph unicode="&#xa8;" d="M324 1227l36 174h150l-37 -174h-149zM678 1225l37 174h149l-37 -174h-149z" />
<glyph unicode="&#xa9;" horiz-adv-x="1607" d="M133 682q0 146 56 277t151.5 225t228 149.5t279.5 55.5q186 0 346 -95.5t254 -258.5t94 -353q0 -143 -55.5 -273.5t-150 -225t-225 -150.5t-273.5 -56q-190 0 -352.5 95t-257.5 257.5t-95 352.5zM209 682q0 -171 84.5 -317.5t229.5 -232t315 -85.5q127 0 243.5 50.5 t200.5 135.5t134 203t50 248q0 170 -84 316.5t-227 232.5t-309 86q-175 0 -321.5 -84.5t-231 -231t-84.5 -321.5zM453 684q0 188 110 305t287 117q140 0 241 -80t113 -201h-74q-20 94 -95.5 148.5t-184.5 54.5q-138 0 -222.5 -95t-84.5 -249t83.5 -248t219.5 -94 q124 0 203 70t96 194h72q-10 -153 -113.5 -247.5t-257.5 -94.5q-175 0 -284 116.5t-109 303.5z" />
<glyph unicode="&#xaa;" horiz-adv-x="667" d="M113 700q0 49 22.5 89.5t61.5 60.5q57 32 192 45l94 10q60 5 68 21q12 42 12 73q0 38 -35.5 61t-95.5 23q-72 0 -109 -26.5t-59 -95.5h-100q37 109 100.5 154.5t179.5 45.5q102 0 158.5 -41t56.5 -116q0 -32 -12 -84l-49 -224q-6 -31 -6 -41q0 -43 41 -43q18 0 49 19 l-16 -82q-38 -12 -76 -12q-37 0 -56 15.5t-28 53.5q-54 -43 -96 -59.5t-97 -16.5q-91 0 -145.5 46.5t-54.5 123.5zM209 707q0 -45 30.5 -72t82.5 -27q84 0 133 52t77 165l5 17q-23 -7 -82 -15l-88 -10q-82 -9 -120 -35t-38 -75z" />
<glyph unicode="&#xab;" horiz-adv-x="892" d="M86 471l23 111l385 270l-31 -139l-277 -203l191 -201l-25 -125zM449 471l22 111l385 270l-31 -139l-278 -203l192 -201l-26 -125z" />
<glyph unicode="&#xac;" d="M102 446v117h887v-563h-129v446h-758z" />
<glyph unicode="&#xad;" horiz-adv-x="444" d="M-12 455l26 127h445l-27 -127h-444z" />
<glyph unicode="&#xae;" horiz-adv-x="1607" d="M133 682q0 194 95 357t259 256.5t359 93.5q187 0 347.5 -95.5t254.5 -258.5t94 -353q0 -143 -55.5 -273.5t-150 -225t-225 -150.5t-273.5 -56q-190 0 -352.5 95t-257.5 257.5t-95 352.5zM209 682q0 -171 84.5 -317.5t229.5 -232t315 -85.5q127 0 243.5 50.5t200.5 135.5 t134 202.5t50 246.5q0 171 -84 318t-227 233t-309 86q-175 0 -321.5 -84.5t-231 -231t-84.5 -321.5zM535 270v809h339q137 0 210 -57t73 -164q0 -143 -149 -196q80 -26 106 -77t31 -182q1 -62 6 -85.5t18 -47.5h-88q-17 26 -22 150q-5 85 -16 120.5t-42 55.5q-50 33 -163 33 h-215v-359h-88zM623 690h217q229 0 229 164q0 83 -51.5 122.5t-159.5 39.5h-235v-326z" />
<glyph unicode="&#xaf;" d="M317 1204l27 127h621l-27 -127h-621z" />
<glyph unicode="&#xb0;" d="M262 1073q0 118 83 200.5t202 82.5q118 0 200 -83t82 -202q0 -116 -83.5 -199.5t-198.5 -83.5q-119 0 -202 83t-83 202zM330 1073q0 -89 64 -153t153 -64q86 0 150.5 63.5t64.5 149.5q0 92 -63.5 156.5t-155.5 64.5q-87 0 -150 -64t-63 -153z" />
<glyph unicode="&#xb1;" d="M86 127v76h920v-76h-920zM86 680v76h420v391h78v-391h422v-76h-422v-387h-78v387h-420z" />
<glyph unicode="&#xb2;" horiz-adv-x="751" d="M137 547q9 127 67.5 199.5t227.5 164.5q126 69 169.5 117t43.5 119q0 63 -40.5 101t-108.5 38q-80 0 -133.5 -52t-63.5 -142h-98q17 131 95 206.5t198 75.5q109 0 179 -65t70 -166q0 -93 -58 -161t-202 -144q-115 -60 -165.5 -103.5t-69.5 -99.5h430l-19 -88h-522z" />
<glyph unicode="&#xb3;" horiz-adv-x="751" d="M143 762v22h97v-12q0 -71 48.5 -116.5t123.5 -45.5q83 0 140.5 55t57.5 132q0 66 -45.5 101.5t-130.5 35.5q-30 0 -59 -4l18 86q25 -4 56 -4q96 0 149 41t53 116q0 56 -40 89.5t-107 33.5q-75 0 -123.5 -42.5t-63.5 -119.5h-96q20 119 93.5 181.5t193.5 62.5 q107 0 174.5 -57t67.5 -146q0 -63 -31.5 -109.5t-104.5 -92.5q55 -38 76 -73t21 -91q0 -119 -87.5 -198t-217.5 -79q-117 0 -190 65t-73 169z" />
<glyph unicode="&#xb4;" d="M504 1135l201 268h198l-282 -268h-117z" />
<glyph unicode="&#xb5;" d="M147 -338v1321h115v-565q0 -108 15.5 -163t58.5 -99q80 -86 199 -86q131 0 213.5 103t82.5 267v543h115v-983h-115v199q-89 -228 -299 -228q-90 0 -153.5 37.5t-116.5 120.5v-467h-115z" />
<glyph unicode="&#xb6;" horiz-adv-x="1107" d="M143 920q0 95 48 189.5t128 156.5q129 100 353 100h475l-14 -63h-121l-328 -1534h-76l326 1534h-227l-328 -1534h-76l184 870h-32q-143 0 -227.5 76t-84.5 205z" />
<glyph unicode="&#xb7;" horiz-adv-x="481" d="M131 422l41 194h180l-41 -194h-180z" />
<glyph unicode="&#xb8;" d="M205 -338l31 51q81 -41 159 -41q58 0 102 32t44 75q0 32 -23 49.5t-63 17.5q-45 0 -99 -22l-28 29l135 143h61l-102 -111q48 11 82 11q55 0 89 -27.5t34 -71.5q0 -73 -69.5 -125.5t-166.5 -52.5q-96 0 -186 43z" />
<glyph unicode="&#xb9;" horiz-adv-x="751" d="M276 1114l17 78q87 13 162 60t104 106h82l-178 -811h-96l139 633q-111 -57 -230 -66z" />
<glyph unicode="&#xba;" horiz-adv-x="741" d="M135 801q0 155 96 256.5t242 101.5q129 0 202 -71t73 -197q0 -156 -95 -258.5t-241 -102.5q-126 0 -201.5 74t-75.5 197zM231 803q0 -89 50 -142t135 -53q103 0 169 77t66 196q0 97 -47 148.5t-135 51.5q-103 0 -170.5 -79t-67.5 -199z" />
<glyph unicode="&#xbb;" horiz-adv-x="892" d="M39 184l29 140l278 204l-192 201l26 123l266 -287l-22 -108zM401 184l29 140l279 204l-193 201l27 123l264 -287l-23 -108z" />
<glyph unicode="&#xbc;" horiz-adv-x="1800" d="M276 1114l17 78q87 13 162 60t104 106h82l-178 -811h-96l139 633q-111 -57 -230 -66zM369 0l1028 1370h106l-1028 -1370h-106zM1061 199l18 77l494 535h84l-117 -530h125l-18 -82h-125l-43 -199h-95l43 199h-366zM1196 281h250l78 356z" />
<glyph unicode="&#xbd;" horiz-adv-x="1800" d="M276 1114l17 78q87 13 162 60t104 106h82l-178 -811h-96l139 633q-111 -57 -230 -66zM369 0l1028 1370h106l-1028 -1370h-106zM1071 0q7 125 67 198.5t228 166.5q124 67 168.5 116.5t44.5 118.5q0 63 -40.5 101t-108.5 38q-80 0 -133.5 -51.5t-65.5 -140.5h-96 q15 129 93.5 204.5t198.5 75.5q109 0 179.5 -64t70.5 -165q0 -94 -58 -162.5t-202 -144.5q-118 -64 -167 -106t-68 -97h430l-19 -88h-522z" />
<glyph unicode="&#xbe;" horiz-adv-x="1800" d="M143 762v22h97v-12q0 -71 48.5 -116.5t123.5 -45.5q83 0 140.5 55t57.5 132q0 66 -45.5 101.5t-130.5 35.5q-30 0 -59 -4l18 86q25 -4 56 -4q96 0 149 41t53 116q0 56 -40 89.5t-107 33.5q-75 0 -123.5 -42.5t-63.5 -119.5h-96q20 119 93.5 181.5t193.5 62.5 q107 0 174.5 -57t67.5 -146q0 -63 -31.5 -109.5t-104.5 -92.5q55 -38 76 -73t21 -91q0 -119 -87.5 -198t-217.5 -79q-117 0 -190 65t-73 169zM369 0l1028 1370h106l-1028 -1370h-106zM1061 199l18 77l494 535h84l-117 -530h125l-18 -82h-125l-43 -199h-95l43 199h-366z M1196 281h250l78 356z" />
<glyph unicode="&#xbf;" horiz-adv-x="958" d="M-47 12q0 111 62 198.5t206 176.5q92 57 134.5 97.5t63.5 91.5t34 145h139q-23 -161 -79 -246t-194 -170q-130 -79 -178.5 -141t-48.5 -148q0 -105 70.5 -172t181.5 -67q130 0 214.5 84t96.5 227h140q-6 -196 -126.5 -312t-318.5 -116q-177 0 -287 97.5t-110 254.5z M467 874l39 185h162l-39 -185h-162z" />
<glyph unicode="&#xc0;" horiz-adv-x="1214" d="M-61 0l790 1366h154l229 -1366h-149l-68 422h-563l-236 -422h-157zM397 539h480l-101 682zM485 1743h189l192 -264h-112z" />
<glyph unicode="&#xc1;" horiz-adv-x="1214" d="M-61 0l790 1366h154l229 -1366h-149l-68 422h-563l-236 -422h-157zM397 539h480l-101 682zM770 1477l201 268h198l-282 -268h-117z" />
<glyph unicode="&#xc2;" horiz-adv-x="1214" d="M-61 0l790 1366h154l229 -1366h-149l-68 422h-563l-236 -422h-157zM397 539h480l-101 682zM541 1483l256 258h161l164 -258h-139l-115 180l-182 -180h-145z" />
<glyph unicode="&#xc3;" horiz-adv-x="1214" d="M-61 0l790 1366h154l229 -1366h-149l-68 422h-563l-236 -422h-157zM397 539h480l-101 682zM561 1575q41 78 83 112.5t93 34.5q35 0 117 -32l100 -39q74 -29 93 -29q20 0 40.5 18.5t32.5 47.5l94 -37q-41 -82 -82 -117t-96 -35q-38 0 -116 33l-109 45q-53 22 -76 22 q-46 0 -84 -67z" />
<glyph unicode="&#xc4;" horiz-adv-x="1214" d="M-61 0l790 1366h154l229 -1366h-149l-68 422h-563l-236 -422h-157zM397 539h480l-101 682zM545 1526l37 174h137l-37 -174h-137zM948 1526l37 174h137l-39 -174h-135z" />
<glyph unicode="&#xc5;" horiz-adv-x="1214" d="M-61 0l790 1366h154l229 -1366h-149l-68 422h-563l-236 -422h-157zM397 539h480l-101 682zM713 1608q0 69 57 124.5t129 55.5q53 0 87 -33t34 -84q0 -70 -57 -126t-129 -56q-52 0 -86.5 34t-34.5 85zM788 1624q0 -26 17.5 -42.5t44.5 -16.5q37 0 65.5 27.5t28.5 62.5 q0 25 -17.5 41t-43.5 16q-37 0 -66 -27t-29 -61z" />
<glyph unicode="&#xc6;" horiz-adv-x="1755" d="M-61 0l802 1366h1051l-25 -117h-645l-104 -483h661l-24 -117h-662l-112 -532h741l-25 -117h-868l90 424h-483l-244 -424h-153zM399 541h445l151 710h-180z" />
<glyph unicode="&#xc7;" horiz-adv-x="1374" d="M125 551q0 196 72.5 374.5t203.5 303.5q184 172 467 172q219 0 353 -111.5t153 -308.5h-139q-15 143 -111.5 223t-253.5 80q-172 0 -311 -94.5t-218 -262t-79 -374.5q0 -224 108 -347.5t304 -123.5q170 0 296.5 96t180.5 266h147q-47 -211 -216.5 -343t-399.5 -136 l-72 -76q64 9 80 9q61 0 96 -27.5t35 -75.5q0 -75 -70.5 -128.5t-170.5 -53.5t-195 45l35 51q81 -41 160 -41q61 0 106 32.5t45 76.5q0 31 -24.5 49t-65.5 18q-44 0 -100 -20l-29 29l104 114q-230 15 -360.5 170t-130.5 414z" />
<glyph unicode="&#xc8;" horiz-adv-x="1097" d="M61 0l291 1366h783l-25 -117h-647l-103 -483h662l-25 -117h-661l-113 -532h742l-25 -117h-879zM420 1743h188l193 -264h-113z" />
<glyph unicode="&#xc9;" horiz-adv-x="1097" d="M61 0l291 1366h783l-25 -117h-647l-103 -483h662l-25 -117h-661l-113 -532h742l-25 -117h-879zM696 1477l201 268h199l-283 -268h-117z" />
<glyph unicode="&#xca;" horiz-adv-x="1097" d="M61 0l291 1366h783l-25 -117h-647l-103 -483h662l-25 -117h-661l-113 -532h742l-25 -117h-879zM469 1483l256 258h162l164 -258h-140l-114 180l-183 -180h-145z" />
<glyph unicode="&#xcb;" horiz-adv-x="1097" d="M61 0l291 1366h783l-25 -117h-647l-103 -483h662l-25 -117h-661l-113 -532h742l-25 -117h-879zM500 1526l37 174h137l-37 -174h-137zM903 1526l37 174h137l-39 -174h-135z" />
<glyph unicode="&#xcc;" horiz-adv-x="477" d="M61 0l291 1366h135l-288 -1366h-138zM117 1743h188l193 -264h-113z" />
<glyph unicode="&#xcd;" horiz-adv-x="477" d="M61 0l291 1366h135l-288 -1366h-138zM387 1477l201 268h198l-282 -268h-117z" />
<glyph unicode="&#xce;" horiz-adv-x="477" d="M61 0l291 1366h135l-288 -1366h-138zM154 1483l256 258h161l164 -258h-139l-115 180l-182 -180h-145z" />
<glyph unicode="&#xcf;" horiz-adv-x="477" d="M61 0l291 1366h135l-288 -1366h-138zM207 1526l37 174h123l-37 -174h-123zM569 1526l37 174h123l-37 -174h-123z" />
<glyph unicode="&#xd0;" horiz-adv-x="1349" d="M61 0l138 649h-70l25 117h69l129 600h338q172 0 272.5 -26t170.5 -89q75 -69 116 -180t41 -246q0 -185 -66 -354t-184 -289q-131 -134 -292 -162q-103 -20 -338 -20h-349zM223 117h215q214 0 318.5 34t195.5 132q96 103 148.5 241.5t52.5 290.5q0 227 -121 342 q-54 51 -133 71.5t-219 20.5h-217l-103 -483h455l-27 -117h-452z" />
<glyph unicode="&#xd1;" horiz-adv-x="1359" d="M61 0l291 1366h150q262 -634 340 -834q117 -303 139 -354q30 143 55 271q16 64 33 149l164 768h137l-291 -1366h-155l-330 801q-2 4 -64 168l-81 211q-10 -54 -29 -136q-33 -154 -70 -329.5t-81.5 -385t-69.5 -329.5h-138zM600 1575q41 78 83 112.5t93 34.5q35 0 117 -32 l100 -39q74 -29 92 -29q20 0 41 18.5t33 47.5l94 -37q-41 -82 -82 -117t-96 -35q-39 0 -117 33l-108 45q-53 22 -76 22q-46 0 -84 -67z" />
<glyph unicode="&#xd2;" horiz-adv-x="1484" d="M143 571q0 183 61 348t171 283q89 94 215 146.5t262 52.5q259 0 414 -158q149 -155 149 -444q0 -170 -59 -337t-160 -286q-88 -100 -214.5 -155.5t-268.5 -55.5q-261 0 -415.5 164t-154.5 442zM281 567q0 -221 117 -353t313 -132q162 0 291.5 90.5t202.5 250t73 357.5 q0 243 -111 373.5t-317 130.5q-116 0 -215.5 -46t-169.5 -132q-87 -104 -135.5 -246.5t-48.5 -292.5zM559 1743h189l192 -264h-113z" />
<glyph unicode="&#xd3;" horiz-adv-x="1484" d="M143 571q0 183 61 348t171 283q89 94 215 146.5t262 52.5q259 0 414 -158q149 -155 149 -444q0 -170 -59 -337t-160 -286q-88 -100 -214.5 -155.5t-268.5 -55.5q-261 0 -415.5 164t-154.5 442zM281 567q0 -221 117 -353t313 -132q162 0 291.5 90.5t202.5 250t73 357.5 q0 243 -111 373.5t-317 130.5q-116 0 -215.5 -46t-169.5 -132q-87 -104 -135.5 -246.5t-48.5 -292.5zM817 1477l201 268h199l-283 -268h-117z" />
<glyph unicode="&#xd4;" horiz-adv-x="1484" d="M143 571q0 183 61 348t171 283q89 94 215 146.5t262 52.5q259 0 414 -158q149 -155 149 -444q0 -170 -59 -337t-160 -286q-88 -100 -214.5 -155.5t-268.5 -55.5q-261 0 -415.5 164t-154.5 442zM281 567q0 -221 117 -353t313 -132q162 0 291.5 90.5t202.5 250t73 357.5 q0 243 -111 373.5t-317 130.5q-116 0 -215.5 -46t-169.5 -132q-87 -104 -135.5 -246.5t-48.5 -292.5zM643 1483l256 258h162l164 -258h-140l-114 180l-183 -180h-145z" />
<glyph unicode="&#xd5;" horiz-adv-x="1484" d="M143 571q0 183 61 348t171 283q89 94 215 146.5t262 52.5q259 0 414 -158q149 -155 149 -444q0 -170 -59 -337t-160 -286q-88 -100 -214.5 -155.5t-268.5 -55.5q-261 0 -415.5 164t-154.5 442zM281 567q0 -221 117 -353t313 -132q162 0 291.5 90.5t202.5 250t73 357.5 q0 243 -111 373.5t-317 130.5q-116 0 -215.5 -46t-169.5 -132q-87 -104 -135.5 -246.5t-48.5 -292.5zM629 1575q41 78 83 112.5t93 34.5q35 0 117 -32l100 -39q74 -29 92 -29q20 0 41 18.5t33 47.5l94 -37q-41 -82 -82 -117t-96 -35q-39 0 -117 33l-108 45q-53 22 -76 22 q-46 0 -84 -67z" />
<glyph unicode="&#xd6;" horiz-adv-x="1484" d="M143 571q0 183 61 348t171 283q89 94 215 146.5t262 52.5q259 0 414 -158q149 -155 149 -444q0 -170 -59 -337t-160 -286q-88 -100 -214.5 -155.5t-268.5 -55.5q-261 0 -415.5 164t-154.5 442zM281 567q0 -221 117 -353t313 -132q162 0 291.5 90.5t202.5 250t73 357.5 q0 243 -111 373.5t-317 130.5q-116 0 -215.5 -46t-169.5 -132q-87 -104 -135.5 -246.5t-48.5 -292.5zM674 1526l37 174h137l-37 -174h-137zM1077 1526l37 174h137l-39 -174h-135z" />
<glyph unicode="&#xd7;" d="M164 362l330 330l-328 326l53 53l326 -328l329 330l54 -53l-330 -330l330 -328l-54 -53l-327 330l-330 -330z" />
<glyph unicode="&#xd8;" horiz-adv-x="1484" d="M143 573q0 177 53.5 331t147 263t226 171.5t284.5 62.5q183 0 313 -82l78 108l80 -57l-80 -108q170 -157 170 -451q0 -181 -57.5 -347t-161.5 -288q-88 -100 -214 -155.5t-267 -55.5q-194 0 -340 98l-90 -124l-78 57l94 131q-158 168 -158 446zM281 567q0 -203 98 -334 l715 986q-103 65 -242 65q-115 0 -216.5 -46.5t-170.5 -131.5q-87 -105 -135.5 -247t-48.5 -292zM451 166q109 -84 262 -84q163 0 292 90.5t201 253t72 367.5q0 231 -111 360z" />
<glyph unicode="&#xd9;" horiz-adv-x="1349" d="M152 328q0 109 36 272l164 766h137l-178 -838q-18 -85 -18 -166q0 -130 86 -205t235 -75q187 0 293 115q50 55 80.5 130t61.5 220l176 819h135l-180 -852q-35 -167 -75 -256t-110 -156q-143 -137 -377 -137q-210 0 -338 100t-128 263zM547 1743h188l193 -264h-113z" />
<glyph unicode="&#xda;" horiz-adv-x="1349" d="M152 328q0 109 36 272l164 766h137l-178 -838q-18 -85 -18 -166q0 -130 86 -205t235 -75q187 0 293 115q50 55 80.5 130t61.5 220l176 819h135l-180 -852q-35 -167 -75 -256t-110 -156q-143 -137 -377 -137q-210 0 -338 100t-128 263zM805 1477l201 268h198l-282 -268 h-117z" />
<glyph unicode="&#xdb;" horiz-adv-x="1349" d="M152 328q0 109 36 272l164 766h137l-178 -838q-18 -85 -18 -166q0 -130 86 -205t235 -75q187 0 293 115q50 55 80.5 130t61.5 220l176 819h135l-180 -852q-35 -167 -75 -256t-110 -156q-143 -137 -377 -137q-210 0 -338 100t-128 263zM602 1483l256 258h162l164 -258 h-140l-114 180l-182 -180h-146z" />
<glyph unicode="&#xdc;" horiz-adv-x="1349" d="M152 328q0 109 36 272l164 766h137l-178 -838q-18 -85 -18 -166q0 -130 86 -205t235 -75q187 0 293 115q50 55 80.5 130t61.5 220l176 819h135l-180 -852q-35 -167 -75 -256t-110 -156q-143 -137 -377 -137q-210 0 -338 100t-128 263zM618 1526l37 174h138l-37 -174h-138 zM1022 1526l37 174h137l-39 -174h-135z" />
<glyph unicode="&#xdd;" horiz-adv-x="1011" d="M174 1366h152q12 -38 68 -227t87 -289l25 -78l22 -78l9 -22q97 143 170 243l325 451h154l-606 -825l-115 -541h-137l118 555zM641 1477l201 268h198l-282 -268h-117z" />
<glyph unicode="&#xde;" horiz-adv-x="1138" d="M61 0l291 1366h135l-51 -246h240q214 0 319 -86q56 -45 86.5 -118t30.5 -160q0 -193 -129 -307q-67 -58 -153 -80.5t-240 -24.5l-320 -2l-71 -342h-138zM295 459h287q122 0 187 16t112 57q44 40 70 100t26 124q0 120 -80 184q-43 37 -101 50.5t-171 13.5h-213z" />
<glyph unicode="&#xdf;" horiz-adv-x="1056" d="M41 0l201 948q29 140 59 212.5t80 127.5q96 107 274 107q158 0 258.5 -87t100.5 -225q0 -112 -62 -191t-190 -130q174 -85 174 -295q0 -209 -127 -343t-322 -134q-82 0 -180 16l29 119q86 -27 153 -27q68 0 127 27t99 76q43 53 68.5 124t25.5 138q0 121 -81 190.5 t-222 69.5h-39l22 108q71 -8 105 -8q124 0 207.5 73t83.5 181q0 91 -63 149t-163 58q-55 0 -105.5 -21.5t-82.5 -58.5q-37 -45 -64 -114.5t-53 -192.5l-190 -897h-123z" />
<glyph unicode="&#xe0;" horiz-adv-x="1019" d="M47 250q0 78 34 143t93 99q47 26 113 42t192 31l156 19q64 8 89 16t32 25q8 19 16 63t8 70q0 69 -59.5 109t-161.5 40q-119 0 -184.5 -47.5t-100.5 -159.5h-135q28 85 58 137t73 87q51 43 131.5 67.5t171.5 24.5q158 0 246 -66t88 -186q0 -31 -2.5 -49.5t-19.5 -93.5 l-80 -379q-10 -45 -10 -74q0 -38 20 -59t55 -21q26 0 64 18l-23 -106q-56 -16 -108 -16q-62 0 -91 31t-36 104q-134 -146 -318 -146q-143 0 -227 75t-84 202zM176 256q0 -79 51.5 -126.5t137.5 -47.5q78 0 146.5 31.5t113.5 89.5q34 42 55.5 98.5t46.5 157.5l10 43 q-88 -19 -149 -27l-139 -16q-78 -9 -122.5 -23t-80.5 -41q-70 -54 -70 -139zM299 1399h188l193 -264h-113z" />
<glyph unicode="&#xe1;" horiz-adv-x="1019" d="M47 250q0 78 34 143t93 99q47 26 113 42t192 31l156 19q64 8 89 16t32 25q8 19 16 63t8 70q0 69 -59.5 109t-161.5 40q-119 0 -184.5 -47.5t-100.5 -159.5h-135q28 85 58 137t73 87q51 43 131.5 67.5t171.5 24.5q158 0 246 -66t88 -186q0 -31 -2.5 -49.5t-19.5 -93.5 l-80 -379q-10 -45 -10 -74q0 -38 20 -59t55 -21q26 0 64 18l-23 -106q-56 -16 -108 -16q-62 0 -91 31t-36 104q-134 -146 -318 -146q-143 0 -227 75t-84 202zM176 256q0 -79 51.5 -126.5t137.5 -47.5q78 0 146.5 31.5t113.5 89.5q34 42 55.5 98.5t46.5 157.5l10 43 q-88 -19 -149 -27l-139 -16q-78 -9 -122.5 -23t-80.5 -41q-70 -54 -70 -139zM543 1135l200 268h199l-283 -268h-116z" />
<glyph unicode="&#xe2;" horiz-adv-x="1019" d="M47 250q0 78 34 143t93 99q47 26 113 42t192 31l156 19q64 8 89 16t32 25q8 19 16 63t8 70q0 69 -59.5 109t-161.5 40q-119 0 -184.5 -47.5t-100.5 -159.5h-135q28 85 58 137t73 87q51 43 131.5 67.5t171.5 24.5q158 0 246 -66t88 -186q0 -31 -2.5 -49.5t-19.5 -93.5 l-80 -379q-10 -45 -10 -74q0 -38 20 -59t55 -21q26 0 64 18l-23 -106q-56 -16 -108 -16q-62 0 -91 31t-36 104q-134 -146 -318 -146q-143 0 -227 75t-84 202zM176 256q0 -79 51.5 -126.5t137.5 -47.5q78 0 146.5 31.5t113.5 89.5q34 42 55.5 98.5t46.5 157.5l10 43 q-88 -19 -149 -27l-139 -16q-78 -9 -122.5 -23t-80.5 -41q-70 -54 -70 -139zM342 1139l256 260h162l164 -260h-140l-114 180l-183 -180h-145z" />
<glyph unicode="&#xe3;" horiz-adv-x="1019" d="M47 250q0 78 34 143t93 99q47 26 113 42t192 31l156 19q64 8 89 16t32 25q8 19 16 63t8 70q0 69 -59.5 109t-161.5 40q-119 0 -184.5 -47.5t-100.5 -159.5h-135q28 85 58 137t73 87q51 43 131.5 67.5t171.5 24.5q158 0 246 -66t88 -186q0 -31 -2.5 -49.5t-19.5 -93.5 l-80 -379q-10 -45 -10 -74q0 -38 20 -59t55 -21q26 0 64 18l-23 -106q-56 -16 -108 -16q-62 0 -91 31t-36 104q-134 -146 -318 -146q-143 0 -227 75t-84 202zM176 256q0 -79 51.5 -126.5t137.5 -47.5q78 0 146.5 31.5t113.5 89.5q34 42 55.5 98.5t46.5 157.5l10 43 q-88 -19 -149 -27l-139 -16q-78 -9 -122.5 -23t-80.5 -41q-70 -54 -70 -139zM332 1227q41 78 83 112.5t93 34.5q36 0 117 -33l100 -41q66 -26 92 -26q21 0 41.5 18t32.5 47l94 -36q-41 -82 -82 -117t-96 -35q-42 0 -117 33l-108 45q-53 22 -76 22q-24 0 -43 -15.5t-41 -51.5 z" />
<glyph unicode="&#xe4;" horiz-adv-x="1019" d="M47 250q0 78 34 143t93 99q47 26 113 42t192 31l156 19q64 8 89 16t32 25q8 19 16 63t8 70q0 69 -59.5 109t-161.5 40q-119 0 -184.5 -47.5t-100.5 -159.5h-135q28 85 58 137t73 87q51 43 131.5 67.5t171.5 24.5q158 0 246 -66t88 -186q0 -31 -2.5 -49.5t-19.5 -93.5 l-80 -379q-10 -45 -10 -74q0 -38 20 -59t55 -21q26 0 64 18l-23 -106q-56 -16 -108 -16q-62 0 -91 31t-36 104q-134 -146 -318 -146q-143 0 -227 75t-84 202zM176 256q0 -79 51.5 -126.5t137.5 -47.5q78 0 146.5 31.5t113.5 89.5q34 42 55.5 98.5t46.5 157.5l10 43 q-88 -19 -149 -27l-139 -16q-78 -9 -122.5 -23t-80.5 -41q-70 -54 -70 -139zM371 1227l37 174h149l-37 -174h-149zM725 1225l37 174h149l-37 -174h-149z" />
<glyph unicode="&#xe5;" horiz-adv-x="1019" d="M47 250q0 78 34 143t93 99q47 26 113 42t192 31l156 19q64 8 89 16t32 25q8 19 16 63t8 70q0 69 -59.5 109t-161.5 40q-119 0 -184.5 -47.5t-100.5 -159.5h-135q28 85 58 137t73 87q51 43 131.5 67.5t171.5 24.5q158 0 246 -66t88 -186q0 -31 -2.5 -49.5t-19.5 -93.5 l-80 -379q-10 -45 -10 -74q0 -38 20 -59t55 -21q26 0 64 18l-23 -106q-56 -16 -108 -16q-62 0 -91 31t-36 104q-134 -146 -318 -146q-143 0 -227 75t-84 202zM176 256q0 -79 51.5 -126.5t137.5 -47.5q78 0 146.5 31.5t113.5 89.5q34 42 55.5 98.5t46.5 157.5l10 43 q-88 -19 -149 -27l-139 -16q-78 -9 -122.5 -23t-80.5 -41q-70 -54 -70 -139zM504 1257q0 69 57 125t129 56q53 0 87 -33.5t34 -85.5q0 -70 -57 -126t-129 -56q-53 0 -87 34t-34 86zM580 1272q0 -25 17.5 -42.5t43.5 -17.5q37 0 65.5 28t28.5 63q0 26 -17.5 42.5t-43.5 16.5 q-37 0 -65.5 -27.5t-28.5 -62.5z" />
<glyph unicode="&#xe6;" horiz-adv-x="1662" d="M41 252q0 77 36 145.5t97 106.5q54 34 114 46t187 17q183 5 219 21q34 14 55 53t21 88q0 82 -62.5 130t-166.5 48q-59 0 -113.5 -20.5t-89.5 -55.5q-43 -43 -64 -120h-131q25 73 47.5 114t55.5 74q117 117 321 117q106 0 177 -38.5t124 -123.5q69 84 152 123t192 39 q167 0 265 -104.5t98 -284.5q0 -63 -16 -144h-723q-7 -75 -7 -90q0 -148 67.5 -230.5t188.5 -82.5q104 0 187.5 63t124.5 172h129q-53 -157 -172.5 -249.5t-270.5 -92.5q-123 0 -213.5 58.5t-130.5 163.5q-136 -222 -366 -222q-147 0 -239.5 78t-92.5 201zM170 260 q0 -84 58 -136t151 -52q77 0 148 41.5t114 111.5q54 87 86 287l-8 -4q-74 -23 -246 -33q-93 -6 -139 -17.5t-84 -37.5q-36 -25 -58 -68.5t-22 -91.5zM856 582h586q8 47 8 77q0 114 -66 181t-178 67q-138 0 -229.5 -85t-120.5 -240z" />
<glyph unicode="&#xe7;" horiz-adv-x="1054" d="M72 408q0 267 149.5 437.5t382.5 170.5q177 0 283 -94.5t114 -257.5h-135q-8 61 -18 92.5t-33 58.5q-73 92 -211 92q-92 0 -168 -44t-124 -115.5t-74.5 -159t-26.5 -178.5q0 -152 77.5 -240t211.5 -88q104 0 188.5 65.5t130.5 182.5h139q-63 -167 -180.5 -259t-273.5 -98 l-82 -88q48 11 82 11q55 0 89 -27.5t34 -71.5q0 -73 -69.5 -125.5t-166.5 -52.5q-96 0 -186 43l31 51q81 -41 159 -41q58 0 102 32t44 75q0 32 -23 49.5t-63 17.5q-45 0 -99 -22l-28 29l114 122q-174 12 -272 126.5t-98 306.5z" />
<glyph unicode="&#xe8;" horiz-adv-x="1079" d="M82 403q0 171 69.5 311.5t191 220t269.5 79.5q173 0 273 -110t100 -300q0 -60 -10 -129h-762q-6 -53 -6 -90q0 -132 78.5 -217.5t199.5 -85.5q112 0 198.5 64t129.5 178h131q-57 -170 -176 -260.5t-285 -90.5q-189 0 -295 113.5t-106 316.5zM233 573h623l2 60 q4 125 -66 198.5t-190 73.5q-129 0 -230 -90.5t-139 -241.5zM330 1399h188l193 -264h-113z" />
<glyph unicode="&#xe9;" horiz-adv-x="1079" d="M82 403q0 171 69.5 311.5t191 220t269.5 79.5q173 0 273 -110t100 -300q0 -60 -10 -129h-762q-6 -53 -6 -90q0 -132 78.5 -217.5t199.5 -85.5q112 0 198.5 64t129.5 178h131q-57 -170 -176 -260.5t-285 -90.5q-189 0 -295 113.5t-106 316.5zM233 573h623l2 60 q4 125 -66 198.5t-190 73.5q-129 0 -230 -90.5t-139 -241.5zM586 1135l200 268h199l-283 -268h-116z" />
<glyph unicode="&#xea;" horiz-adv-x="1079" d="M82 403q0 171 69.5 311.5t191 220t269.5 79.5q173 0 273 -110t100 -300q0 -60 -10 -129h-762q-6 -53 -6 -90q0 -132 78.5 -217.5t199.5 -85.5q112 0 198.5 64t129.5 178h131q-57 -170 -176 -260.5t-285 -90.5q-189 0 -295 113.5t-106 316.5zM233 573h623l2 60 q4 125 -66 198.5t-190 73.5q-129 0 -230 -90.5t-139 -241.5zM358 1139l256 260h162l164 -260h-139l-115 180l-182 -180h-146z" />
<glyph unicode="&#xeb;" horiz-adv-x="1079" d="M82 403q0 171 69.5 311.5t191 220t269.5 79.5q173 0 273 -110t100 -300q0 -60 -10 -129h-762q-6 -53 -6 -90q0 -132 78.5 -217.5t199.5 -85.5q112 0 198.5 64t129.5 178h131q-57 -170 -176 -260.5t-285 -90.5q-189 0 -295 113.5t-106 316.5zM233 573h623l2 60 q4 125 -66 198.5t-190 73.5q-129 0 -230 -90.5t-139 -241.5zM385 1227l37 174h149l-36 -174h-150zM739 1225l37 174h150l-37 -174h-150z" />
<glyph unicode="&#xec;" horiz-adv-x="423" d="M14 1399h189l192 -264h-112zM41 0l211 989h123l-211 -989h-123z" />
<glyph unicode="&#xed;" horiz-adv-x="423" d="M41 0l211 989h123l-211 -989h-123zM291 1135l201 268h198l-282 -268h-117z" />
<glyph unicode="&#xee;" horiz-adv-x="423" d="M41 0l211 989h123l-211 -989h-123zM57 1139l256 260h162l164 -260h-139l-115 180l-182 -180h-146z" />
<glyph unicode="&#xef;" horiz-adv-x="423" d="M41 0l211 989h123l-211 -989h-123zM125 1227l37 174h135l-37 -174h-135zM442 1225l39 174h135l-38 -174h-136z" />
<glyph unicode="&#xf0;" horiz-adv-x="1138" d="M82 403q0 172 69 310t192 215.5t275 77.5q76 0 162 -25q-47 58 -73.5 87.5t-98.5 100.5l-100 -106l-70 67l103 109l-23 25l-55 51l92 96l78 -72l104 113l72 -68l-107 -112q170 -170 249 -311.5t87 -288.5q1 -11 3.5 -44.5t2.5 -52.5q0 -131 -43.5 -252.5t-121.5 -207.5 q-66 -73 -162.5 -113.5t-204.5 -40.5q-197 0 -313.5 120t-116.5 322zM211 403q0 -152 83 -242.5t222 -90.5q172 0 285.5 136t113.5 345q0 166 -78 256t-223 90q-169 0 -274 -123q-60 -72 -94.5 -171t-34.5 -200z" />
<glyph unicode="&#xf1;" horiz-adv-x="1058" d="M41 0l211 989h123l-27 -127q86 83 163.5 118.5t170.5 35.5q129 0 199.5 -64.5t70.5 -181.5q0 -59 -22 -166l-129 -604h-123l127 592q24 114 24 168q0 69 -43 108t-118 39q-130 0 -242 -94q-63 -52 -95.5 -116.5t-58.5 -186.5l-108 -510h-123zM375 1227q41 78 83 112.5 t93 34.5q36 0 117 -33l100 -41q66 -26 92 -26q20 0 41 18t33 47l94 -36q-41 -82 -82 -117t-96 -35q-42 0 -117 33l-108 45q-53 22 -76 22q-24 0 -43 -15.5t-41 -51.5z" />
<glyph unicode="&#xf2;" horiz-adv-x="1138" d="M84 416q0 171 69.5 308t192.5 214.5t275 77.5q201 0 313.5 -115t112.5 -321q0 -124 -44.5 -246t-121.5 -207q-66 -73 -162 -113.5t-205 -40.5q-197 0 -313.5 120.5t-116.5 322.5zM213 416q0 -152 83 -243t222 -91q172 0 286 136t114 343q0 166 -78.5 256t-223.5 90 q-169 0 -274 -123q-60 -72 -94.5 -169.5t-34.5 -198.5zM338 1399h188l193 -264h-113z" />
<glyph unicode="&#xf3;" horiz-adv-x="1138" d="M84 416q0 171 69.5 308t192.5 214.5t275 77.5q201 0 313.5 -115t112.5 -321q0 -124 -44.5 -246t-121.5 -207q-66 -73 -162 -113.5t-205 -40.5q-197 0 -313.5 120.5t-116.5 322.5zM213 416q0 -152 83 -243t222 -91q172 0 286 136t114 343q0 166 -78.5 256t-223.5 90 q-169 0 -274 -123q-60 -72 -94.5 -169.5t-34.5 -198.5zM594 1135l201 268h198l-282 -268h-117z" />
<glyph unicode="&#xf4;" horiz-adv-x="1138" d="M84 416q0 171 69.5 308t192.5 214.5t275 77.5q201 0 313.5 -115t112.5 -321q0 -124 -44.5 -246t-121.5 -207q-66 -73 -162 -113.5t-205 -40.5q-197 0 -313.5 120.5t-116.5 322.5zM213 416q0 -152 83 -243t222 -91q172 0 286 136t114 343q0 166 -78.5 256t-223.5 90 q-169 0 -274 -123q-60 -72 -94.5 -169.5t-34.5 -198.5zM393 1139l256 260h162l164 -260h-139l-115 180l-182 -180h-146z" />
<glyph unicode="&#xf5;" horiz-adv-x="1138" d="M84 416q0 171 69.5 308t192.5 214.5t275 77.5q201 0 313.5 -115t112.5 -321q0 -124 -44.5 -246t-121.5 -207q-66 -73 -162 -113.5t-205 -40.5q-197 0 -313.5 120.5t-116.5 322.5zM213 416q0 -152 83 -243t222 -91q172 0 286 136t114 343q0 166 -78.5 256t-223.5 90 q-169 0 -274 -123q-60 -72 -94.5 -169.5t-34.5 -198.5zM399 1227q41 78 83 112.5t93 34.5q36 0 117 -33l101 -41q66 -26 92 -26q20 0 40.5 18t32.5 47l95 -36q-41 -82 -82.5 -117t-96.5 -35q-41 0 -116 33l-109 45q-53 22 -76 22q-24 0 -43 -15.5t-41 -51.5z" />
<glyph unicode="&#xf6;" horiz-adv-x="1138" d="M84 416q0 171 69.5 308t192.5 214.5t275 77.5q201 0 313.5 -115t112.5 -321q0 -124 -44.5 -246t-121.5 -207q-66 -73 -162 -113.5t-205 -40.5q-197 0 -313.5 120.5t-116.5 322.5zM213 416q0 -152 83 -243t222 -91q172 0 286 136t114 343q0 166 -78.5 256t-223.5 90 q-169 0 -274 -123q-60 -72 -94.5 -169.5t-34.5 -198.5zM401 1227l37 174h150l-37 -174h-150zM756 1225l37 174h149l-37 -174h-149z" />
<glyph unicode="&#xf7;" d="M86 653v76h920v-76h-920zM471 309q0 31 21.5 52.5t52.5 21.5t52 -21.5t21 -52.5t-21 -52t-52 -21t-52.5 22t-21.5 51zM473 1071q0 31 21.5 52.5t52.5 21.5t52.5 -21.5t21.5 -52.5t-21.5 -52.5t-52.5 -21.5q-30 0 -52 22t-22 52z" />
<glyph unicode="&#xf8;" horiz-adv-x="1138" d="M84 414q0 172 69.5 309.5t192 215t275.5 77.5q128 0 217 -47l108 147l78 -57l-104 -144q127 -112 127 -325q0 -177 -68 -318t-189.5 -220t-273.5 -79q-140 0 -237 60l-93 -127l-80 57l95 129q-117 114 -117 322zM213 416q0 -134 63 -219l492 675q-66 35 -154 35 q-79 0 -150 -32t-122 -91q-60 -72 -94.5 -169.5t-34.5 -198.5zM348 129q74 -47 170 -47q175 0 287.5 136.5t112.5 348.5q0 158 -74 244z" />
<glyph unicode="&#xf9;" horiz-adv-x="1081" d="M98 209q0 64 25 180l127 600h123l-135 -639q-17 -75 -17 -123q0 -69 48 -107t137 -38q85 0 162.5 42.5t131.5 117.5q47 64 69.5 127t57.5 229l82 391h123l-211 -989h-123l29 129q-93 -83 -176.5 -119.5t-177.5 -36.5q-125 0 -200 64.5t-75 171.5zM344 1399h188l193 -264 h-113z" />
<glyph unicode="&#xfa;" horiz-adv-x="1081" d="M98 209q0 64 25 180l127 600h123l-135 -639q-17 -75 -17 -123q0 -69 48 -107t137 -38q85 0 162.5 42.5t131.5 117.5q47 64 69.5 127t57.5 229l82 391h123l-211 -989h-123l29 129q-93 -83 -176.5 -119.5t-177.5 -36.5q-125 0 -200 64.5t-75 171.5zM645 1135l201 268h198 l-282 -268h-117z" />
<glyph unicode="&#xfb;" horiz-adv-x="1081" d="M98 209q0 64 25 180l127 600h123l-135 -639q-17 -75 -17 -123q0 -69 48 -107t137 -38q85 0 162.5 42.5t131.5 117.5q47 64 69.5 127t57.5 229l82 391h123l-211 -989h-123l29 129q-93 -83 -176.5 -119.5t-177.5 -36.5q-125 0 -200 64.5t-75 171.5zM379 1139l256 260h162 l164 -260h-140l-114 180l-183 -180h-145z" />
<glyph unicode="&#xfc;" horiz-adv-x="1081" d="M98 209q0 64 25 180l127 600h123l-135 -639q-17 -75 -17 -123q0 -69 48 -107t137 -38q85 0 162.5 42.5t131.5 117.5q47 64 69.5 127t57.5 229l82 391h123l-211 -989h-123l29 129q-93 -83 -176.5 -119.5t-177.5 -36.5q-125 0 -200 64.5t-75 171.5zM455 1227l37 174h149 l-37 -174h-149zM809 1225l37 174h149l-37 -174h-149z" />
<glyph unicode="&#xfd;" horiz-adv-x="862" d="M-29 -334l23 111q40 -6 55 -6q41 0 66 6.5t43 23.5q19 18 55.5 74.5t60.5 108.5l19 39l-232 966h144q6 -26 59.5 -274t81.5 -377l14 -70q3 -14 5.5 -25.5t3.5 -17.5t2 -10.5t1.5 -7t0.5 -4.5l6 -27q71 143 401 813h150l-588 -1122q-61 -118 -123 -163.5t-162 -45.5 q-37 0 -86 8zM492 1135l200 268h199l-283 -268h-116z" />
<glyph unicode="&#xfe;" horiz-adv-x="1120" d="M-27 -313l357 1679h123l-107 -506q78 85 152 121.5t166 36.5q163 0 266.5 -117.5t103.5 -302.5q0 -115 -41.5 -232.5t-115.5 -211.5q-68 -86 -161 -133.5t-196 -47.5q-104 0 -187 49t-136 140l-101 -475h-123zM256 356q0 -125 69.5 -199.5t184.5 -74.5q171 0 287 166 q108 154 108 352q0 148 -67 227.5t-191 79.5q-80 0 -151 -37.5t-117 -103.5q-58 -83 -90.5 -192t-32.5 -218z" />
<glyph unicode="&#xff;" horiz-adv-x="862" d="M-29 -334l23 111q40 -6 55 -6q41 0 66 6.5t43 23.5q19 18 55.5 74.5t60.5 108.5l19 39l-232 966h144q6 -26 59.5 -274t81.5 -377l14 -70q3 -14 5.5 -25.5t3.5 -17.5t2 -10.5t1.5 -7t0.5 -4.5l6 -27q71 143 401 813h150l-588 -1122q-61 -118 -123 -163.5t-162 -45.5 q-37 0 -86 8zM291 1227l37 174h149l-37 -174h-149zM645 1225l37 174h149l-36 -174h-150z" />
<glyph unicode="&#x152;" horiz-adv-x="2082" d="M141 571q0 175 55.5 329.5t151.5 264t231 173t289 63.5q145 0 255.5 -59t174.5 -171l41 195h783l-25 -117h-645l-104 -483h661l-24 -117h-662l-113 -532h742l-25 -117h-878l18 82q-143 -117 -346 -117q-264 0 -422 164.5t-158 441.5zM279 567q0 -220 121 -352.5 t321 -132.5q230 0 383 178l153 719q-34 144 -135.5 224.5t-249.5 80.5q-117 0 -222.5 -46.5t-178.5 -131.5q-91 -104 -141.5 -246.5t-50.5 -292.5z" />
<glyph unicode="&#x153;" horiz-adv-x="1898" d="M84 416q0 172 69.5 309t192.5 214t277 77q138 0 241 -61.5t150 -170.5q72 110 180.5 170t237.5 60q173 0 272.5 -110t99.5 -302q0 -54 -8 -127h-760v-8l-6 -29v-8q-4 -16 -4 -41q0 -135 78 -221t201 -86q114 0 200 64t127 178h133q-59 -171 -177 -261t-285 -90 q-132 0 -225.5 57.5t-139.5 166.5q-72 -107 -182 -165.5t-242 -58.5q-197 0 -313.5 120.5t-116.5 322.5zM213 416q0 -152 83 -243t222 -91q143 0 244.5 91.5t138.5 254.5q7 93 17 129v21q0 154 -80.5 241.5t-221.5 87.5q-169 0 -274 -123q-61 -72 -95 -169t-34 -199z M1053 573h622q2 25 2 60q0 126 -68.5 199t-187.5 73q-129 0 -229.5 -90.5t-138.5 -241.5z" />
<glyph unicode="&#x178;" horiz-adv-x="1011" d="M174 1366h152q12 -38 68 -227t87 -289l25 -78l22 -78l9 -22q97 143 170 243l325 451h154l-606 -825l-115 -541h-137l118 555zM457 1526l37 174h137l-37 -174h-137zM860 1526l37 174h137l-39 -174h-135z" />
<glyph unicode="&#x2c6;" d="M303 1139l256 260h162l164 -260h-140l-114 180l-182 -180h-146z" />
<glyph unicode="&#x2dc;" d="M295 1227q41 78 83 112.5t93 34.5q36 0 117 -33l100 -41q66 -26 92 -26q20 0 41 18t33 47l94 -36q-41 -82 -82 -117t-96 -35q-42 0 -117 33l-108 45q-53 22 -76 22q-24 0 -43 -15.5t-41 -51.5z" />
<glyph unicode="&#x2000;" horiz-adv-x="894" />
<glyph unicode="&#x2001;" horiz-adv-x="1788" />
<glyph unicode="&#x2002;" horiz-adv-x="894" />
<glyph unicode="&#x2003;" horiz-adv-x="1788" />
<glyph unicode="&#x2004;" horiz-adv-x="596" />
<glyph unicode="&#x2005;" horiz-adv-x="447" />
<glyph unicode="&#x2006;" horiz-adv-x="298" />
<glyph unicode="&#x2007;" horiz-adv-x="298" />
<glyph unicode="&#x2008;" horiz-adv-x="223" />
<glyph unicode="&#x2009;" horiz-adv-x="357" />
<glyph unicode="&#x200a;" horiz-adv-x="99" />
<glyph unicode="&#x2010;" horiz-adv-x="444" d="M-12 455l26 127h445l-27 -127h-444z" />
<glyph unicode="&#x2011;" horiz-adv-x="444" d="M-12 455l26 127h445l-27 -127h-444z" />
<glyph unicode="&#x2012;" horiz-adv-x="444" d="M-12 455l26 127h445l-27 -127h-444z" />
<glyph unicode="&#x2013;" horiz-adv-x="1161" d="M90 455l27 127h956l-26 -127h-957z" />
<glyph unicode="&#x2014;" horiz-adv-x="1325" d="M-12 455l26 127h1325l-26 -127h-1325z" />
<glyph unicode="&#x2018;" horiz-adv-x="481" d="M231 897l39 180q31 147 85 213.5t151 75.5l-21 -92q-43 -13 -62.5 -44.5t-51.5 -137.5h84l-43 -195h-181z" />
<glyph unicode="&#x2019;" horiz-adv-x="481" d="M240 899l20 92q40 10 60.5 41t46.5 119l6 20h-82l41 195h182l-39 -180q-31 -147 -85 -213.5t-150 -73.5z" />
<glyph unicode="&#x201a;" horiz-adv-x="481" d="M-10 -272l20 92q40 12 60.5 42.5t46.5 117.5l6 20h-82l41 195h182l-39 -181q-31 -146 -84.5 -211.5t-150.5 -74.5z" />
<glyph unicode="&#x201c;" horiz-adv-x="794" d="M231 897l39 180q31 147 85 213.5t151 75.5l-21 -92q-43 -13 -62.5 -44.5t-51.5 -137.5h84l-43 -195h-181zM545 897l39 180q31 147 85 213.5t150 75.5l-20 -92q-43 -14 -63 -45.5t-52 -136.5h84l-41 -195h-182z" />
<glyph unicode="&#x201d;" horiz-adv-x="794" d="M240 899l20 92q40 10 60.5 41t46.5 119l6 20h-82l41 195h182l-39 -180q-31 -147 -85 -213.5t-150 -73.5zM553 899l20 92q40 11 61.5 42t47.5 118l6 20h-84l41 195h182l-39 -180q-31 -147 -85 -213.5t-150 -73.5z" />
<glyph unicode="&#x201e;" horiz-adv-x="794" d="M-10 -272l20 92q40 12 60.5 42.5t46.5 117.5l6 20h-82l41 195h182l-39 -181q-31 -146 -84.5 -211.5t-150.5 -74.5zM303 -272l21 92q41 12 61.5 42t46.5 118l6 20h-84l41 195h183l-39 -181q-31 -146 -85 -211.5t-151 -74.5z" />
<glyph unicode="&#x2022;" horiz-adv-x="1366" d="M436 692q0 120 83.5 202.5t205.5 82.5q114 0 196.5 -83.5t82.5 -199.5q0 -118 -83 -201t-200 -83t-201 82.5t-84 199.5z" />
<glyph unicode="&#x2026;" horiz-adv-x="1441" d="M41 0l41 195h180l-41 -195h-180zM522 0l41 195h180l-41 -195h-180zM1001 0l43 195h181l-43 -195h-181z" />
<glyph unicode="&#x202f;" horiz-adv-x="357" />
<glyph unicode="&#x2039;" horiz-adv-x="530" d="M86 471l23 111l385 270l-31 -139l-277 -203l191 -201l-25 -125z" />
<glyph unicode="&#x203a;" horiz-adv-x="530" d="M39 184l29 140l278 204l-192 201l26 123l266 -287l-22 -108z" />
<glyph unicode="&#x205f;" horiz-adv-x="447" />
<glyph unicode="&#x20ac;" horiz-adv-x="1536" d="M133 543l49 92h148q0 18 8 92h-178l49 92h147q69 272 250.5 427t433.5 155q135 0 250.5 -50t188.5 -141l-76 -133q-54 101 -148 154t-219 53q-192 0 -332 -121t-204 -344h770l-49 -92h-744q-7 -37 -10 -92h707l-50 -92h-661q9 -214 124.5 -337.5t307.5 -123.5 q243 0 401 190l-28 -194q-170 -113 -373 -113q-164 0 -294.5 73.5t-201.5 205.5q-65 118 -71 299h-195z" />
<glyph unicode="&#x2122;" horiz-adv-x="1697" d="M186 1284l19 82h620l-18 -82h-248l-158 -737h-100l158 737h-273zM788 547l175 819h131l92 -465q0 -1 2 -13.5t5.5 -34.5t6.5 -40l23 -141q92 163 125 219l276 475h139l-174 -819h-100q114 534 141 653l-383 -653h-92l-131 657l-23 -117q-3 -19 -6 -36.5t-5.5 -30.5 t-2.5 -16l-98 -457h-101z" />
<glyph unicode="&#xe000;" horiz-adv-x="993" d="M0 0v993h993v-993h-993z" />
</font>
</defs>
</svg>
